Coordinates
version=1
nRows=10
nColumns=38
inDegrees=no

Units are S.I. units (second, meters, Newtons, ...)
If the header above contains a line with 'inDegrees', this indicates whether rotational values are in degrees (yes) or radians (no).

endheader
time	pelvis_tilt	pelvis_list	pelvis_rotation	pelvis_tx	pelvis_ty	pelvis_tz	hip_flexion_r	hip_adduction_r	hip_rotation_r	knee_angle_r	ankle_angle_r	subtalar_angle_r	mtp_angle_r	hip_flexion_l	hip_adduction_l	hip_rotation_l	knee_angle_l	ankle_angle_l	subtalar_angle_l	mtp_angle_l	lumbar_extension	lumbar_bending	lumbar_rotation	arm_flex_r	arm_add_r	arm_rot_r	elbow_flex_r	pro_sup_r	wrist_flex_r	wrist_dev_r	arm_flex_l	arm_add_l	arm_rot_l	elbow_flex_l	pro_sup_l	wrist_flex_l	wrist_dev_l
0.741667	0.166598	0.105565	0.062971	0.885906	1.04095	-0.336768	0.303453	-0.136245	-0.0572768	-1.44952	0.0728609	0.049271	8.54464e-05	0.00832067	0.194925	0.00926859	-0.667658	0.423932	0.0758117	8.74104e-05	-0.512593	-0.0755915	-0.206784	-0.418358	-0.234554	-0.066389	1.52988	1.9669	-0.0106657	-0.019569	-0.0870005	-0.302349	0.0358899	1.97852	1.81445	-0.0111735	-0.00558791
0.75	0.156371	0.0965671	0.0690191	0.886002	1.043	-0.337227	0.329898	-0.127538	-0.0625887	-1.41823	0.0779778	0.049271	8.54464e-05	-0.0112543	0.184462	0.0188995	-0.642684	0.41919	0.0758117	8.74104e-05	-0.500567	-0.0613829	-0.218071	-0.446648	-0.239269	-0.0659976	1.54681	1.97582	-0.0106657	-0.019569	-0.083886	-0.295887	0.026289	2.00496	1.81961	-0.0111735	-0.00558791
0.758333	0.14542	0.0865297	0.0744632	0.886311	1.04525	-0.337593	0.354743	-0.117953	-0.0691826	-1.38181	0.0820567	0.049271	8.54464e-05	-0.0307348	0.172638	0.0273955	-0.615489	0.411108	0.0758117	8.74104e-05	-0.487097	-0.046529	-0.227807	-0.476152	-0.243652	-0.0674527	1.56695	1.98907	-0.0106657	-0.019569	-0.0829227	-0.289348	0.0178205	2.03281	1.82319	-0.0111735	-0.00558791
0.766667	0.134001	0.0756136	0.0789803	0.886821	1.04769	-0.337829	0.377661	-0.107314	-0.0764182	-1.3403	0.0851178	0.049271	8.54464e-05	-0.050148	0.159614	0.0341484	-0.586492	0.399537	0.0758117	8.74104e-05	-0.472543	-0.0313642	-0.235603	-0.506387	-0.247256	-0.0709371	1.58863	2.00453	-0.0106657	-0.019569	-0.083532	-0.282872	0.0112945	2.061	1.8247	-0.0111735	-0.00558791
0.775	0.122403	0.0640351	0.0822973	0.887518	1.05028	-0.3379	0.39828	-0.09547	-0.0835927	-1.29372	0.0872367	0.049271	8.54464e-05	-0.0695481	0.145605	0.0386061	-0.556162	0.384359	0.0758117	8.74104e-05	-0.457351	-0.0162346	-0.241188	-0.536867	-0.249732	-0.0764139	1.61045	2.02005	-0.0106657	-0.019569	-0.0852793	-0.276572	0.00723639	2.08871	1.82383	-0.0111735	-0.00558791
0.783333	0.110935	0.0520392	0.084227	0.888386	1.053	-0.337782	0.416176	-0.0823343	-0.0900164	-1.24204	0.088512	0.049271	8.54464e-05	-0.0890266	0.130877	0.0403417	-0.524998	0.36549	0.0758117	8.74104e-05	-0.442024	-0.00146521	-0.244434	-0.567123	-0.250846	-0.0836742	1.63139	2.03373	-0.0106657	-0.019569	-0.0878845	-0.270526	0.00586852	2.11536	1.82054	-0.0111735	-0.00558791
0.791667	0.0999201	0.0398811	0.0846895	0.889406	1.05585	-0.337461	0.430895	-0.0679232	-0.0950873	-1.18522	0.0890321	0.049271	8.54464e-05	-0.108707	0.115731	0.039105	-0.493503	0.342896	0.0758117	8.74104e-05	-0.427079	0.01267	-0.245364	-0.596715	-0.250498	-0.0923966	1.65077	2.04419	-0.0106657	-0.019569	-0.0912085	-0.264778	0.00713447	2.14061	1.81509	-0.0111735	-0.00558791
0.8	0.0896667	0.0278145	0.083718	0.890565	1.0588	-0.336939	0.441996	-0.0523812	-0.0983528	-1.12328	0.0888545	0.049271	8.54464e-05	-0.128726	0.100483	0.0348473	-0.462163	0.316616	0.0758117	8.74104e-05	-0.412992	0.0259621	-0.244147	-0.625232	-0.248727	-0.1022	1.66821	2.05066	-0.0106657	-0.019569	-0.0952251	-0.259345	0.0107497	2.16426	1.80803	-0.0111735	-0.00558791
0.808333	0.0804412	0.0160856	0.0814493	0.891851	1.06181	-0.336232	0.449114	-0.0359924	-0.0995517	-1.05635	0.0880096	0.049271	8.54464e-05	-0.149196	0.0854571	0.0277157	-0.431444	0.286777	0.0758117	8.74104e-05	-0.400152	0.0382645	-0.24108	-0.652293	-0.245703	-0.11268	1.68362	2.05293	-0.0106657	-0.019569	-0.0999847	-0.254223	0.0162685	2.18624	1.8002	-0.0111735	-0.00558791
0.816667	0.0724396	0.00492869	0.0781027	0.893254	1.06486	-0.335375	0.452023	-0.0191697	-0.0986352	-0.984739	0.0865286	0.049271	8.54464e-05	-0.170166	0.0709685	0.018025	-0.401801	0.253623	0.0758117	8.74104e-05	-0.38882	0.049481	-0.236553	-0.677536	-0.241716	-0.123432	1.69706	2.05132	-0.0106657	-0.019569	-0.105572	-0.249391	0.0231581	2.20652	1.79263	-0.0111735	-0.00558791
